<?xml version="1.0" encoding="utf-8"?>
<!-- Generator: Adobe Illustrator 21.0.0, SVG Export Plug-In . SVG Version: 6.00 Build 0)  -->
<svg version="1.1" id="Layer_1" xmlns="http://www.w3.org/2000/svg" xmlns:xlink="http://www.w3.org/1999/xlink" x="0px" y="0px"
	 viewBox="0 0 792 612" style="enable-background:new 0 0 792 612;" xml:space="preserve">
<style type="text/css">
	.st0{fill:#F5DE19;}
</style>
<g>
	<rect x="185.4" y="91.6" class="st0" width="428.6" height="428.6"/>
	<path d="M473.3,426.4c8.6,14.1,19.9,24.5,39.7,24.5c16.7,0,27.3-8.3,27.3-19.9c0-13.8-11-18.7-29.3-26.7L501,400
		c-29.1-12.4-48.4-27.9-48.4-60.7c0-30.2,23-53.2,59-53.2c25.6,0,44,8.9,57.3,32.2l-31.4,20.1c-6.9-12.4-14.4-17.3-25.9-17.3
		c-11.8,0-19.3,7.5-19.3,17.3c0,12.1,7.5,17,24.8,24.5l10.1,4.3c34.2,14.7,53.5,29.6,53.5,63.3c0,36.3-28.5,56.1-66.7,56.1
		c-37.4,0-61.6-17.8-73.4-41.2L473.3,426.4z M331,429.9c6.3,11.2,12.1,20.7,25.9,20.7c13.2,0,21.6-5.2,21.6-25.3V288.4h40.3v137.5
		c0,41.7-24.5,60.7-60.1,60.7c-32.2,0-50.9-16.7-60.4-36.8L331,429.9z"/>
</g>
</svg>
