<?xml version="1.0" encoding="utf-8"?>
<!-- Generator: Adobe Illustrator 21.0.0, SVG Export Plug-In . SVG Version: 6.00 Build 0)  -->
<svg version="1.1" id="Layer_1" xmlns="http://www.w3.org/2000/svg" xmlns:xlink="http://www.w3.org/1999/xlink" x="0px" y="0px"
	 viewBox="0 0 355.4 102" style="enable-background:new 0 0 355.4 102;" xml:space="preserve">
<style type="text/css">
	.st0{fill:url(#SVGID_1_);}
	.st1{fill:url(#SVGID_2_);}
	.st2{fill:url(#SVGID_3_);}
	.st3{fill:#C1BFBE;}
	.st4{fill:#494849;}
</style>
<g>
	
		<linearGradient id="SVGID_1_" gradientUnits="userSpaceOnUse" x1="-608.6721" y1="1555.0891" x2="-639.8653" y2="1555.3021" gradientTransform="matrix(-0.9771 -0.323 -0.2901 0.8773 -136.7413 -1510.4994)">
		<stop  offset="0.2308" style="stop-color:#9B9A75"/>
		<stop  offset="0.5632" style="stop-color:#9C9B77"/>
		<stop  offset="0.6829" style="stop-color:#A2A17E"/>
		<stop  offset="0.7683" style="stop-color:#ABAA89"/>
		<stop  offset="0.8373" style="stop-color:#B8B79A"/>
		<stop  offset="0.8964" style="stop-color:#CAC8B0"/>
		<stop  offset="0.9482" style="stop-color:#DFDDCB"/>
		<stop  offset="0.9944" style="stop-color:#F8F6EB"/>
		<stop  offset="1" style="stop-color:#FBF9EF"/>
	</linearGradient>
	<path class="st0" d="M24.3,98.7l-2.6-0.9c0,0,0.4-13.4-4.5-14.3c-3.2-3.7,0.5-157.7,12-0.5c0,0-4,2-4.7,5.4
		C23.8,91.7,24.3,98.7,24.3,98.7z"/>
	
		<linearGradient id="SVGID_2_" gradientUnits="userSpaceOnUse" x1="-603.8256" y1="1500.4581" x2="-648.7324" y2="1578.2391" gradientTransform="matrix(-0.9771 -0.323 -0.2901 0.8773 -136.7413 -1510.4994)">
		<stop  offset="0" style="stop-color:#599E4C"/>
		<stop  offset="1" style="stop-color:#498E41"/>
	</linearGradient>
	<path class="st1" d="M25.8,85.8c0,0,23-15.2,17.6-46.6C38.2,16.4,25.9,8.9,24.6,5.9c-1.5-2.1-2.9-5.6-2.9-5.6l1,63.7
		C22.7,64,20.7,83.4,25.8,85.8z"/>
	
		<linearGradient id="SVGID_3_" gradientUnits="userSpaceOnUse" x1="-599.7432" y1="1556.3156" x2="-631.5359" y2="1534.9604" gradientTransform="matrix(-0.9771 -0.323 -0.2901 0.8773 -136.7413 -1510.4994)">
		<stop  offset="0" style="stop-color:#4FA346"/>
		<stop  offset="0.2402" style="stop-color:#59A84F"/>
		<stop  offset="0.6511" style="stop-color:#75B667"/>
		<stop  offset="1" style="stop-color:#91C47F"/>
	</linearGradient>
	<path class="st2" d="M20.4,86.6c0,0-21.6-14.7-20.3-40.7S16.6,7.2,19.5,4.8c1.9-2.1,2-2.9,2.1-4.8c1.3,2.9,1.1,43.1,1.2,47.8
		C23.4,66.2,21.8,83.2,20.4,86.6z"/>
	<path class="st3" d="M266.6,39c1.2,0,5.9,0.2,8.1,0.2c4.1,0,6.9-0.2,14.5-0.2c6.4,0,11.8,1.8,15.6,5.1c4.6,4,7.1,9.6,7.1,16.4
		c0,9.7-4.4,15.3-8.9,18.5c-4.4,3.3-10.2,5.2-18.4,5.2c-4.4,0-11.9-0.1-18.1-0.2h-0.1c-0.3-0.6,0.5-2.8,1-2.9
		c1.7-0.2,2.1-0.2,2.9-0.6c1.3-0.5,1.6-1.2,1.8-3.6c0.2-4.5,0.1-9.8,0.1-15.8c0-4.3,0.1-12.7-0.1-15.4c-0.2-2.2-1.2-2.8-3.1-3.2
		c-1-0.2-2.3-0.4-4.1-0.7C265.1,41.4,266.2,39.5,266.6,39z M281.1,79c1.5,1.2,4.5,1.8,7.3,1.8c3.5,0,6.9-0.7,10.3-3.7
		c3.4-3.1,5.7-7.8,5.7-15.4c0-7.3-2.8-13.1-8.4-16.6c-3.2-2-7.3-2.8-12.1-2.8c-1.4,0-2.8,0.1-3.6,0.4c-0.2,0.1-0.7,0.7-0.7,1
		c-0.1,1.3-0.1,11.1-0.1,16.9c0,5.9,0,14.3,0.1,15.3C279.7,76.8,280.2,78.3,281.1,79z"/>
	<path class="st3" d="M318.2,39c0.7,0,2.6,0.2,7.6,0.2c4.6,0,8.4-0.1,13-0.1c5.6,0,13.3,2,13.3,10.3c0,4.1-2.9,7.4-6.7,8.9
		c-0.2,0.1-0.2,0.2,0,0.3c5.4,1.4,10.1,4.7,10.1,11c0,6.2-3.9,10-9.5,12.5c-3.4,1.5-7.6,2-12,2c-3.3,0-12-0.4-16.9-0.3
		c-0.5-0.2,0.4-2.5,0.9-2.9c1.2-0.1,2.1-0.1,3.3-0.5c1.8-0.4,2-1,2.2-3.6c0.1-2.2,0.1-10.2,0.1-15.8c0-7.8,0.1-13,0-15.6
		c-0.1-2-0.8-2.6-2.2-3c-1.1-0.2-2.9-0.4-4.3-0.7C316.7,41.5,317.8,39.3,318.2,39z M347.8,71.3c0-6.3-4.6-9.9-13.1-9.9
		c-0.4,0-3.1-0.1-3.7,0.1c-0.2,0.1-0.4,0.2-0.4,0.4c0,4.5-0.1,11.8,0.1,14.7c0.1,1.2,1,2.9,2.1,3.4c1.2,0.7,3.8,0.8,5.6,0.8
		C343.3,80.7,347.8,77.9,347.8,71.3z M331.3,42.5c-0.3,0.1-0.7,0.8-0.7,1.2c-0.1,2.6-0.1,9.3-0.1,14c0,0.1,0.2,0.4,0.4,0.4
		c1,0.1,3.3,0.1,5.2,0.1c2.8,0,4.4-0.4,5.2-0.8c2.3-1.2,3.4-3.7,3.4-6.4c0-6.2-4.3-8.7-10.9-8.7C333.5,42.4,332.2,42.4,331.3,42.5z"
		/>
	<path class="st4" d="M58,84.1c-0.1-0.2-0.2-0.7-0.2-1.5c0-0.5,0.1-0.9,0.2-1c1.4-0.2,2.1-0.4,2.8-0.6c1.3-0.3,1.8-1,1.8-2.6
		c0.2-3.9,0.2-11.1,0.1-16.3V62c0-0.5,0-1.3-0.7-1.8c-1-0.7-2.3-1.2-3.9-1.7c-0.6-0.1-1-0.5-1-0.9c0-0.4,0.4-0.8,1.2-1
		c2.1-0.2,7.6-1.5,9.8-2.6c0.1,0.1,0.4,0.5,0.3,1c0,0.2,0,0.4-0.1,0.7c-0.1,0.7-0.1,1.5-0.1,2.3c0,0.2,0.3,0.4,0.5,0.4
		c0.1,0,0.3-0.1,0.4-0.1c4.1-3.2,7.8-4.4,9.8-4.4c3.2,0,5.6,1.5,7.4,4.5c0.1,0.1,0.3,0.2,0.4,0.2c0.1,0,0.3-0.1,0.4-0.2
		c3.8-2.9,7.6-4.6,10-4.6c5.9,0,9.5,4.5,9.5,11.9c0,2.1,0,4.8-0.1,7.4c0,2.2,0,4.3,0,5.7c0,0.4,0.4,1.3,1.2,1.5
		c0.9,0.4,2.1,0.7,3.7,0.9h0.1c0.1,0.4-0.1,2.1-0.4,2.4c-0.4,0-1,0-1.6-0.1c-1.2-0.1-2.9-0.1-4.9-0.1c-4,0-6,0.1-8,0.2
		c-0.1-0.5-0.2-2.1,0-2.4c1.2-0.2,1.7-0.4,2.4-0.6c1.2-0.4,1.6-1,1.7-2.6c0-1.2,0.3-11.7-0.1-14.2c-0.4-2.6-2.3-5.6-6.5-5.6
		c-1.5,0-4.1,0.7-6.5,2.5c-0.1,0.1-0.2,0.4-0.2,0.6v0.1c0.3,1.3,0.3,2.9,0.3,5.3c0,1.3,0,2.8,0,4.2c0,2.9,0,5.6,0,7.6
		c0,1.4,0.9,1.8,1.5,2c0.4,0.1,0.7,0.1,1,0.2c0.6,0.1,1.2,0.3,2.1,0.4c0.1,0.3,0.1,1.1,0,1.8c-0.1,0.4-0.2,0.6-0.2,0.6
		c-2.2-0.1-4.5-0.1-7.7-0.1c-1,0-2.6,0.1-4,0.1c-1.2,0-2.3,0.1-2.9,0.1c-0.1-0.1-0.2-0.6-0.2-1.2c0-0.6,0.1-1,0.2-1.2
		c0.3-0.1,0.6-0.1,0.9-0.1c0.7-0.1,1.4-0.2,2.1-0.4c1.1-0.3,1.5-1,1.5-2.3c0.2-3.2,0.4-12.4-0.1-14.7c-0.8-3.7-2.9-5.6-6.2-5.6
		c-2,0-4.5,1-6.5,2.5c-0.4,0.2-0.6,0.9-0.6,1.5c0,1.1,0,2.4,0,3.8c0,4.6,0,10.4,0.1,12.9c0.1,0.7,0.4,1.7,1.8,2
		c0.3,0.1,0.9,0.1,1.5,0.3c0.4,0.1,0.7,0.1,1.2,0.2c0.1,0.4,0.1,2-0.2,2.4c-0.7,0-1.4-0.1-2.3-0.1c-1.4-0.1-3.1-0.1-5-0.1
		c-2.3,0-3.9,0.1-5.1,0.1C59.4,84,58.7,84.1,58,84.1L58,84.1z"/>
	<path class="st4" d="M131.3,84.8c-10.9,0-14.8-8-14.8-15.5c0-5.2,2.1-9.3,6.4-12.2c3-1.8,6.6-2.9,9.8-2.9c8.4,0,14.2,6,14.2,14.6
		c0,5.8-2.3,10.4-6.7,13.3C138,83.4,134.3,84.8,131.3,84.8L131.3,84.8z M130.1,57.3c-1.3,0-2.6,0.4-3.4,1c-2.5,1.5-3.8,4.6-3.8,9.1
		c0,8.4,4.3,14.3,10.3,14.3c1.8,0,3.2-0.5,4.5-1.5c1.8-1.5,2.9-4.6,2.9-8.9C140.4,62.8,136.3,57.3,130.1,57.3L130.1,57.3z"/>
	<path class="st4" d="M244.5,84.8c-10.9,0-14.8-8-14.8-15.5c0-5.2,2.1-9.3,6.4-12.2c3-1.8,6.6-2.9,9.8-2.9c8.4,0,14.2,6,14.2,14.6
		c0,5.9-2.3,10.4-6.7,13.3C251.1,83.4,247.5,84.8,244.5,84.8L244.5,84.8z M243.3,57.3c-1.3,0-2.6,0.4-3.4,1
		c-2.5,1.5-3.8,4.6-3.8,9.1c0,8.4,4.3,14.3,10.3,14.3c1.8,0,3.2-0.5,4.5-1.5c1.8-1.5,2.9-4.6,2.9-8.9
		C253.5,62.8,249.4,57.3,243.3,57.3L243.3,57.3z"/>
	<path class="st4" d="M206.7,102c-3.9,0-6.7-0.8-9.2-2.7c-2.3-1.8-3.4-4.5-3.4-6.4c0-0.5,0.1-1.9,1.3-3.2c0.7-0.8,2.3-2.2,5.9-4.8
		c0.1-0.1,0.2-0.1,0.2-0.3s-0.1-0.3-0.2-0.3c-3-1.2-3.9-3.1-4.2-4c0-0.1,0-0.1,0-0.1c-0.1-0.4-0.1-0.8,0.4-1.2
		c0.4-0.3,1.1-0.7,1.8-1.1c1-0.7,2.3-1.3,2.9-1.9c0.1-0.1,0.1-0.2,0.1-0.4c0-0.1-0.1-0.3-0.2-0.4c-4.5-1.5-6.7-4.8-6.7-9.8
		c0-3.2,1.5-6.2,4.1-8.1c1.8-1.4,6.3-3.2,9.2-3.2h0.1c3,0.1,4.7,0.7,7,1.5c1.2,0.4,2.5,0.7,4.2,0.7c2.5,0,3.6-0.8,4.5-1.7
		c0.1,0.1,0.1,0.4,0.2,1.3c0.1,0.8-0.1,2.1-0.8,2.9c-0.5,0.7-1.7,1.2-2.8,1.2c-0.1,0-0.2,0-0.3,0c-1.2-0.1-1.7-0.3-1.7-0.3l-0.3,0.1
		c-0.1,0.1,0,0.3,0.1,0.4c0,0.1,0,0.1,0.1,0.1c0.1,0.6,0.4,2.3,0.4,2.8c0,5.3-2.1,7.6-4.3,9.3c-2.1,1.6-4.7,2.6-7.5,2.9l0,0
		c-0.1,0-0.3,0-0.9,0.1c-0.4,0-0.8,0.1-0.9,0.1h-0.1c-0.5,0.1-1.8,0.7-1.8,1.9c0,1,0.6,2.1,3.4,2.3c0.6,0.1,1.2,0.1,1.8,0.1
		c3.7,0.2,8.2,0.6,10.3,1.3c2.9,1.1,4.8,3.7,4.8,6.9c0,4.8-3.4,9.2-9,12C212.5,101.3,209.7,102,206.7,102L206.7,102z M206.3,85.4
		c-1.2,0-2.2,0.4-2.7,0.7c-2.6,1.7-3.9,3.4-3.9,5.4c0,1.8,0.7,3.3,2.3,4.6c1.9,1.6,4.4,2.3,7.7,2.3c6.5,0,9.5-3.5,9.5-7
		c0-2.4-1.2-4-3.7-5C213.4,85.7,210.2,85.4,206.3,85.4L206.3,85.4z M206.7,57c-3.4,0-5.6,2.6-5.6,6.7c0,4.2,1.9,9,7.1,9
		c0.9,0,2.6-0.4,3.4-1.3c1.2-1.1,2.1-3.4,2.1-5.9C213.7,60.1,211.1,57,206.7,57L206.7,57z"/>
	<g>
		<g>
			<path class="st4" d="M188.9,81.5c-1.6-0.2-2.8-0.4-4.2-1.1c-0.2-0.1-0.5-0.8-0.5-1c-0.1-2.2-0.1-8.7-0.1-12.9
				c0-3.4-0.6-6.5-2.1-8.7c-1.8-2.4-4.3-3.9-7.4-3.9c-2.9,0-6.6,1.9-9.8,4.6c-0.1,0.1-0.6,0.5-0.5-0.1c0-0.7,0.1-2.1,0.2-3.1
				c0.1-0.9-0.4-1.3-0.4-1.3c-2.1,1-7.8,2.3-9.9,2.6c-1.5,0.3-2,1.8-0.3,2.3l0,0l0,0c1.8,0.5,2.9,1.1,3.7,1.6
				c0.7,0.5,0.6,1.2,0.6,1.8c0.1,4.8,0.1,12.2-0.1,16.2c-0.1,1.6-0.5,2.1-1.7,2.4h0.1c-0.9,0.2-1.6,0.4-2.7,0.5
				c-0.4,0.4-0.4,2.4,0,2.9c0.7,0,4.4-0.2,7.5-0.2c4.3,0,6.4,0.2,7.5,0.2c0.4-0.5,0.6-2.4,0.3-2.9c-1.2-0.1-2.1-0.2-3-0.4
				c-1.2-0.3-1.5-0.9-1.5-2.1c-0.1-3.4-0.1-10.6-0.1-15.5c0-1.4,0.4-2,0.8-2.3c1.5-1.3,3.9-2.1,5.9-2.1c2.1,0,3.4,0.7,4.4,1.5
				c1.4,1.2,1.9,2.8,2.1,4c0.3,2.7,0.2,8.2,0.2,12.9c0,2.6-0.2,3.2-1.2,3.5c-0.4,0.2-1.6,0.4-3,0.6c-0.4,0.4-0.3,2.4,0,2.9
				c1.9,0,4.1-0.2,7.3-0.2c4,0,6.5,0.2,7.6,0.2C189.1,83.8,189.2,82,188.9,81.5z"/>
		</g>
	</g>
</g>
</svg>
