<?xml version="1.0" encoding="utf-8"?>
<!-- Generator: Adobe Illustrator 21.0.0, SVG Export Plug-In . SVG Version: 6.00 Build 0)  -->
<svg version="1.1" id="Layer_1" xmlns="http://www.w3.org/2000/svg" xmlns:xlink="http://www.w3.org/1999/xlink" x="0px" y="0px"
	 viewBox="0 0 415.2 373.3" style="enable-background:new 0 0 415.2 373.3;" xml:space="preserve">
<style type="text/css">
	.st0{fill:#FFFFFF;}
	.st1{fill:#53C1DE;}
</style>
<path class="st0" d="M0,186c0,31.4,30.6,60.6,78.9,77.1c-9.6,48.5-1.7,87.7,24.7,102.9c27.2,15.7,67.6,4.8,106-28.8
	c37.4,32.2,75.3,44.9,101.7,29.6c27.1-15.7,35.4-57.5,25.5-107.5c50.3-16.6,78.4-41.6,78.4-73.4c0-30.6-30.7-57.1-78.3-73.5
	c10.7-52.1,1.6-90.3-25.9-106.2c-26.5-15.3-64.8-2-102.8,31.1C168.7,2.3,130.8-8.4,103.3,7.5C76.8,22.9,69.2,62.7,78.9,112.1
	C32.3,128.4,0,155.5,0,186z"/>
<path class="st1" d="M326.8,128.8c-3.9-1.3-7.9-2.6-11.9-3.7c0.7-2.7,1.3-5.4,1.8-8.1c9-43.6,3.1-78.8-17-90.3
	c-19.2-11.1-50.7,0.5-82.5,28.1c-3.1,2.7-6.2,5.5-9.2,8.4c-2-1.9-4-3.8-6.1-5.6c-33.3-29.6-66.7-42-86.7-30.4
	c-19.2,11.1-24.9,44.2-16.8,85.5c0.8,4.1,1.7,8.2,2.7,12.2c-4.7,1.3-9.3,2.8-13.6,4.3c-39,13.6-64,34.9-64,57.1
	c0,22.9,26.8,45.8,67.4,59.7c3.3,1.1,6.6,2.2,10,3.1c-1.1,4.4-2.1,8.8-2.9,13.2c-7.7,40.6-1.7,72.9,17.5,83.9
	c19.8,11.4,53-0.3,85.4-28.6c2.6-2.2,5.1-4.6,7.7-7.1c3.2,3.1,6.6,6.2,10,9.1c31.3,27,62.3,37.9,81.4,26.8
	c19.8-11.5,26.2-46.1,17.9-88.3c-0.6-3.2-1.4-6.5-2.2-9.9c2.3-0.7,4.6-1.4,6.9-2.1c42.3-14,69.8-36.7,69.8-59.8
	C392.4,163.9,366.7,142.5,326.8,128.8L326.8,128.8z"/>
<path class="st0" d="M317.7,231c-2,0.7-4.1,1.3-6.2,1.9c-4.7-14.8-11-30.5-18.7-46.7c7.4-15.8,13.4-31.4,17.9-46
	c3.8,1.1,7.4,2.2,11,3.5c34.1,11.7,54.9,29.1,54.9,42.5C376.7,200.4,354.2,218.9,317.7,231L317.7,231z M302.5,261
	c3.7,18.6,4.2,35.5,1.8,48.7c-2.2,11.8-6.6,19.7-12.1,22.9c-11.6,6.7-36.5-2-63.3-25.1c-3.1-2.6-6.2-5.5-9.3-8.5
	c10.4-11.4,20.8-24.6,30.9-39.3c17.8-1.6,34.7-4.2,49.9-7.7C301.3,255.1,302,258.1,302.5,261L302.5,261z M149.4,331.4
	c-11.4,4-20.4,4.1-25.9,1c-11.6-6.7-16.5-32.6-9.9-67.3c0.8-4.1,1.7-8.2,2.7-12.2c15.1,3.3,31.8,5.7,49.7,7.2
	c10.2,14.4,20.9,27.6,31.7,39.1c-2.3,2.2-4.6,4.4-7,6.5C176.3,318.1,162,327,149.4,331.4L149.4,331.4z M96.2,230.9
	c-18-6.1-32.8-14.1-43-22.8c-9.1-7.8-13.8-15.6-13.8-21.9c0-13.4,20-30.6,53.4-42.2c4.2-1.5,8.4-2.8,12.7-4
	c4.6,15,10.7,30.7,18,46.6c-7.4,16.1-13.5,32-18.2,47.2C102.2,232.9,99.2,231.9,96.2,230.9z M114,109.5c-6.9-35.4-2.3-62.1,9.3-68.8
	c12.3-7.1,39.6,3,68.4,28.6c1.8,1.6,3.7,3.3,5.5,5.1c-10.7,11.5-21.3,24.6-31.4,38.9c-17.3,1.6-33.9,4.2-49.2,7.6
	C115.6,117.1,114.8,113.3,114,109.5L114,109.5z M273.1,148.8c-3.6-6.2-7.3-12.4-11.2-18.4c11.8,1.5,23,3.5,33.6,5.9
	c-3.2,10.2-7.1,20.8-11.8,31.8C280.3,161.5,276.7,155.1,273.1,148.8L273.1,148.8z M208.2,85.6c7.3,7.9,14.5,16.7,21.7,26.2
	c-14.5-0.7-29.1-0.7-43.6,0C193.5,102.4,200.8,93.6,208.2,85.6L208.2,85.6z M142.9,148.9c-3.6,6.3-7.1,12.6-10.4,19.1
	c-4.6-10.9-8.5-21.6-11.7-31.9c10.5-2.4,21.7-4.3,33.4-5.7C150.3,136.5,146.5,142.6,142.9,148.9z M154.6,243.1
	c-12.1-1.3-23.5-3.2-34-5.5c3.3-10.5,7.3-21.4,12-32.6c3.3,6.4,6.8,12.8,10.5,19.1C146.7,230.5,150.6,236.8,154.6,243.1z
	 M208.6,287.8c-7.5-8.1-14.9-17-22.2-26.6c7.1,0.3,14.3,0.4,21.6,0.4c7.5,0,14.9-0.2,22.3-0.5C223.1,270.9,215.9,279.8,208.6,287.8z
	 M283.8,204.5c4.9,11.2,9.1,22.1,12.4,32.4c-10.7,2.4-22.2,4.4-34.4,5.9c3.9-6.2,7.7-12.4,11.3-18.8
	C276.8,217.6,280.4,211.1,283.8,204.5L283.8,204.5z M259.5,216.2c-5.6,9.7-11.5,19.2-17.7,28.5c-10.9,0.8-22.2,1.2-33.8,1.2
	c-11.5,0-22.6-0.4-33.4-1.1c-6.4-9.3-12.4-18.8-18-28.6c-5.6-9.7-10.9-19.6-15.7-29.7c4.9-10.1,10.1-20,15.7-29.7v0
	c5.6-9.7,11.6-19.2,17.9-28.5c11-0.8,22.2-1.3,33.6-1.3c11.4,0,22.7,0.4,33.6,1.3c6.3,9.2,12.2,18.7,17.8,28.4
	c5.6,9.7,10.9,19.6,15.9,29.6C270.4,196.4,265.1,206.4,259.5,216.2L259.5,216.2z M292,40.2c12.3,7.1,17.2,35.8,9.4,73.5
	c-0.5,2.5-1.1,4.9-1.7,7.3c-15.3-3.5-31.9-6.2-49.3-7.8c-10.1-14.4-20.6-27.5-31.2-38.9c2.8-2.7,5.6-5.3,8.5-7.8
	C255,42.9,280.4,33.5,292,40.2L292,40.2z"/>
<path class="st1" d="M208,153.2c18.2,0,32.9,14.7,32.9,32.9c0,18.2-14.7,32.9-32.9,32.9c-18.2,0-32.9-14.7-32.9-32.9
	C175.1,168,189.8,153.2,208,153.2"/>
</svg>
